# Blender v2.80 (sub 43) OBJ File: ''
# www.blender.org
mtllib sawoff.mtl
o Shotgun.001
v 0.757246 -0.541124 0.130693
v 0.753742 -0.716257 0.136912
v 1.131254 -0.662249 0.136640
v 1.134003 -0.581426 0.135747
v 0.753742 -0.716257 -0.136890
v 0.757246 -0.541124 -0.130670
v 1.134003 -0.581426 -0.135725
v 1.131254 -0.662249 -0.136616
v 2.023602 -0.581426 0.135746
v 2.023602 -0.581426 -0.135726
v 1.129720 -0.707344 0.092331
v 1.129720 -0.707344 -0.092307
v 2.019319 -0.675795 -0.092308
v 2.019319 -0.675795 0.092330
v 2.021366 -0.630685 -0.136451
v 2.021366 -0.630685 0.136473
v 0.753050 -0.740978 0.112470
v 0.753050 -0.740978 -0.112446
vt 0.886145 0.410929
vt 0.830165 0.410353
vt 0.851252 0.307063
vt 0.877085 0.307015
vt 0.830165 0.410904
vt 0.774181 0.410904
vt 0.784682 0.307091
vt 0.810513 0.307404
vt 0.687463 0.166552
vt 0.774181 0.166552
vt 0.774181 0.410846
vt 0.687463 0.410846
vt 0.673222 0.308540
vt 0.614241 0.308540
vt 0.614241 0.063834
vt 0.673222 0.063834
vt 0.916321 0.200711
vt 0.901897 0.212850
vt 0.886145 0.212651
vt 0.886145 0.137996
vt 0.901897 0.137796
vt 0.916321 0.149935
vt 0.870394 0.062683
vt 0.886145 0.062500
vt 0.779015 0.062500
vt 0.794763 0.062845
vt 0.689078 0.062500
vt 0.772567 0.062500
vt 0.679655 0.412500
vt 0.607808 0.412500
vt 0.687323 0.062500
vt 0.687376 0.307348
vt 0.600087 0.307348
vt 0.600140 0.062500
vt 0.687463 0.411887
vt 0.600000 0.411887
vt 0.894045 0.062500
vt 0.894045 0.137796
vt 0.886145 0.131074
vt 0.886145 0.069222
vt 0.950000 0.136085
vt 0.950000 0.064210
vn -0.5466 0.6225 0.5600
vn -0.6086 -0.3066 0.7318
vn 0.0298 -0.3577 0.9334
vn 0.0339 0.6998 0.7135
vn -0.6086 -0.3066 -0.7318
vn -0.5466 0.6225 -0.5600
vn 0.0339 0.6998 -0.7135
vn 0.0298 -0.3577 -0.9334
vn 0.5927 0.5681 0.5709
vn 0.5927 0.5681 -0.5709
vn 0.0686 -0.9217 0.3818
vn 0.0686 -0.9217 -0.3818
vn 0.6249 -0.7218 -0.2977
vn 0.6249 -0.7218 0.2977
vn 0.6277 -0.3012 -0.7178
vn 0.6277 -0.3012 0.7178
vn -0.6019 -0.7338 0.3150
vn -0.6019 -0.7338 -0.3150
usemtl Material.004
s 1
f 1/1/1 2/2/2 3/3/3 4/4/4
f 5/5/5 6/6/6 7/7/7 8/8/8
f 7/9/7 4/10/4 9/11/9 10/12/10
f 11/13/11 12/14/12 13/15/13 14/16/14
f 13/17/13 15/18/15 10/19/10 9/20/9 16/21/16 14/22/14
f 4/4/4 3/3/3 16/23/16 9/24/9
f 8/8/8 7/7/7 10/25/10 15/26/15
f 6/27/6 1/28/1 4/10/4 7/9/7
f 17/29/17 18/30/18 12/14/12 11/13/11
f 11/13/11 14/16/14 16/31/16 3/32/3
f 13/15/13 12/14/12 8/33/8 15/34/15
f 17/29/17 11/13/11 3/32/3 2/35/2
f 12/14/12 18/30/18 5/36/5 8/33/8
f 2/37/2 5/38/5 18/39/18 17/40/17
f 6/41/6 5/38/5 2/37/2 1/42/1
o Shotgun.002
v 1.041383 -0.424398 -0.023420
v 1.041552 -0.399946 0.000000
v 1.041383 -0.424398 0.023418
v 0.757417 -0.390196 0.023418
v 0.755277 -0.487221 0.023418
v 1.040954 -0.487223 0.023418
v 0.757417 -0.390196 -0.023419
v 1.040954 -0.487223 -0.023419
v 0.755277 -0.487221 -0.023419
v 0.757957 -0.365712 0.000001
v 1.073070 -0.535114 -0.004121
v 2.633019 -0.535114 -0.004122
v 2.633019 -0.606506 0.037097
v 1.073070 -0.606508 0.037098
v 2.633019 -0.606506 0.119533
v 1.073070 -0.606508 0.119534
v 2.633019 -0.535114 0.160750
v 1.073070 -0.535114 0.160751
v 2.633019 -0.463723 0.119533
v 1.073070 -0.463723 0.119534
v 2.633019 -0.463723 0.037097
v 1.073070 -0.463723 0.037097
v 1.073070 -0.535114 -0.033858
v 1.073070 -0.437971 0.022228
v 1.073070 -0.535114 0.190488
v 1.073070 -0.632260 0.134402
v 0.703443 -0.437971 0.022229
v 0.703443 -0.535114 -0.033858
v 0.703443 -0.437971 0.134402
v 1.073070 -0.437971 0.134402
v 0.703443 -0.535114 0.190488
v 0.703443 -0.632260 0.134402
v 0.703443 -0.632260 0.022229
v 1.073070 -0.632260 0.022229
v 1.073070 -0.535114 0.004143
v 1.073070 -0.606508 -0.037078
v 2.633019 -0.606506 -0.037079
v 2.633019 -0.535114 0.004142
v 1.073070 -0.606508 -0.119514
v 2.633019 -0.606506 -0.119515
v 1.073070 -0.535114 -0.160732
v 2.633019 -0.535114 -0.160733
v 1.073070 -0.463723 -0.119515
v 2.633019 -0.463723 -0.119515
v 2.633019 -0.463723 -0.037079
v 1.073070 -0.463723 -0.037079
v 1.073070 -0.437971 -0.022210
v 1.073070 -0.535114 0.033877
v 1.073070 -0.632260 -0.134380
v 1.073070 -0.535114 -0.190466
v 0.703443 -0.437971 -0.022209
v 0.703443 -0.535114 0.033877
v 0.703443 -0.437971 -0.134380
v 1.073070 -0.437971 -0.134381
v 0.703443 -0.535114 -0.190466
v 0.703443 -0.632260 -0.134380
v 0.703443 -0.632260 -0.022209
v 1.073070 -0.632260 -0.022209
vt 0.286390 0.853343
vt 0.293065 0.847703
vt 0.299738 0.853343
vt 0.396653 0.722990
vt 0.371411 0.722990
vt 0.373378 0.657121
vt 0.389716 0.657342
vt 0.380680 0.657121
vt 0.387917 0.591471
vt 0.403810 0.591250
vt 0.405232 0.657121
vt 0.378658 0.591531
vt 0.371411 0.657097
vt 0.406102 0.723635
vt 0.396672 0.722927
vt 0.396653 0.657121
vt 0.406102 0.657745
vt 0.273042 0.875734
vt 0.273042 0.853351
vt 0.286390 0.853351
vt 0.286390 0.875734
vt 0.286390 0.867832
vt 0.299738 0.867832
vt 0.279715 0.847703
vt 0.183615 0.591250
vt 0.183615 0.950997
vt 0.170961 0.951225
vt 0.170960 0.591478
vt 0.240064 0.951033
vt 0.240065 0.591250
vt 0.249670 0.591250
vt 0.249670 0.951033
vt 0.273042 0.591250
vt 0.273042 0.951033
vt 0.134834 0.591265
vt 0.134834 0.950998
vt 0.111366 0.950983
vt 0.111366 0.591250
vt 0.367128 0.876122
vt 0.346781 0.885628
vt 0.326434 0.876122
vt 0.326434 0.857109
vt 0.346781 0.847603
vt 0.367128 0.857109
vt 0.098667 0.951250
vt 0.098667 0.591517
vt 0.207086 0.591262
vt 0.207086 0.951009
vt 0.374467 0.797730
vt 0.394813 0.807237
vt 0.394813 0.814095
vt 0.367128 0.801160
vt 0.415161 0.778717
vt 0.394813 0.769211
vt 0.394813 0.762353
vt 0.422500 0.775288
vt 0.371411 0.591267
vt 0.371411 0.676508
vt 0.339475 0.676491
vt 0.339475 0.591250
vt 0.304974 0.676851
vt 0.304974 0.591613
vt 0.322254 0.591250
vt 0.322254 0.676488
vt 0.273042 0.676831
vt 0.273042 0.591593
vt 0.335326 0.847603
vt 0.335326 0.762353
vt 0.367128 0.762353
vt 0.367128 0.847603
vt 0.322254 0.847603
vt 0.322254 0.762353
vt 0.322254 0.676801
vt 0.322254 0.591560
vt 0.415161 0.797730
vt 0.422500 0.801160
vt 0.374467 0.778717
vt 0.367128 0.775288
vt 0.240064 0.951033
vt 0.216692 0.951033
vt 0.216692 0.591250
vt 0.240064 0.591250
vt 0.207086 0.951033
vt 0.207086 0.591250
vt 0.134834 0.591478
vt 0.147490 0.591250
vt 0.147490 0.950997
vt 0.134835 0.951225
vt 0.170960 0.591262
vt 0.170960 0.951009
vt 0.412104 0.733833
vt 0.412104 0.752846
vt 0.391758 0.762353
vt 0.371411 0.752846
vt 0.371411 0.733833
vt 0.391758 0.724326
vt 0.098667 0.950983
vt 0.085968 0.951250
vt 0.085968 0.591517
vt 0.098667 0.591250
vt 0.062500 0.951235
vt 0.062500 0.591502
vt 0.374468 0.849473
vt 0.367128 0.852902
vt 0.367128 0.827031
vt 0.374467 0.830460
vt 0.415161 0.830460
vt 0.422500 0.827031
vt 0.422500 0.852902
vt 0.415161 0.849473
vt 0.304974 0.762453
vt 0.273042 0.762432
vt 0.273042 0.677194
vt 0.304974 0.677215
vt 0.322254 0.762090
vt 0.322254 0.676851
vt 0.339475 0.676801
vt 0.371411 0.676818
vt 0.371411 0.762059
vt 0.339475 0.762043
vt 0.322254 0.677111
vt 0.322254 0.762353
vt 0.286112 0.847703
vt 0.273042 0.847703
vt 0.273042 0.762453
vt 0.286112 0.762453
vt 0.317914 0.847703
vt 0.317914 0.762453
vt 0.394814 0.820954
vt 0.394814 0.814095
vt 0.394814 0.858980
vt 0.394814 0.865838
vn 1.0000 -0.0069 0.0000
vn 0.0472 0.3911 0.9191
vn 0.0000 0.0000 1.0000
vn 0.0420 0.3482 0.9365
vn 0.0472 0.3911 -0.9191
vn 0.0420 0.3483 -0.9365
vn -0.0000 -0.0000 -1.0000
vn 0.1197 0.9928 0.0000
vn -0.9998 0.0221 0.0000
vn 1.0000 -0.0068 0.0000
vn 0.0000 -0.8660 -0.5000
vn 0.0000 -0.8660 0.5000
vn 0.0000 0.8660 0.5000
vn 1.0000 -0.0000 0.0000
vn -0.0000 0.8660 -0.5000
vn 0.6100 0.0000 -0.7924
vn 0.6100 0.6862 -0.3962
vn 0.6100 0.0000 0.7924
vn 0.6100 -0.6862 0.3962
vn 0.6100 0.6862 0.3962
vn 0.6100 -0.6862 -0.3962
usemtl Material.006
s 1
f 19/43/19 20/44/19 21/45/19
f 22/46/20 23/47/21 24/48/21 21/49/22
f 25/50/23 19/51/24 26/52/25 27/53/25
f 20/54/26 19/51/24 25/50/23 28/55/26
f 21/56/22 20/57/26 28/58/26 22/59/20
f 23/60/27 22/61/27 25/62/27 27/63/27
f 26/64/28 19/43/19 21/45/19 24/65/28
f 22/61/27 28/66/27 25/62/27
f 29/67/25 30/68/25 31/69/29 32/70/29
f 32/71/29 31/72/29 33/73/30 34/74/30
f 34/74/30 33/73/30 35/75/21 36/76/21
f 36/77/21 35/78/21 37/79/31 38/80/31
f 31/81/32 30/82/32 39/83/32 37/84/32 35/85/32 33/86/32
f 38/80/31 37/79/31 39/87/33 40/88/33
f 40/89/33 39/90/33 30/68/25 29/67/25
f 40/91/32 29/92/32 41/93/34 42/94/35
f 34/95/32 36/96/32 43/97/36 44/98/37
f 45/99/33 42/100/35 41/101/34 46/102/25
f 47/103/31 48/104/38 42/105/35 45/106/33
f 49/107/21 43/108/36 48/104/38 47/103/31
f 50/109/30 44/110/37 43/111/36 49/112/21
f 51/113/29 52/114/39 44/110/37 50/109/30
f 46/102/25 41/101/34 52/115/39 51/116/29
f 32/117/32 34/95/32 44/98/37 52/118/39
f 38/119/32 40/91/32 42/94/35 48/120/38
f 29/92/32 32/117/32 52/118/39 41/93/34
f 36/96/32 38/119/32 48/120/38 43/97/36
f 53/121/21 54/122/30 55/123/30 56/124/21
f 54/122/30 57/125/29 58/126/29 55/123/30
f 57/127/29 59/128/25 60/129/25 58/130/29
f 59/128/25 61/131/33 62/132/33 60/129/25
f 55/133/32 58/134/32 60/135/32 62/136/32 63/137/32 56/138/32
f 61/139/33 64/140/31 63/141/31 62/142/33
f 64/140/31 53/143/21 56/144/21 63/141/31
f 64/145/32 65/146/38 66/147/36 53/148/32
f 57/149/32 67/150/39 68/151/34 59/152/32
f 69/153/31 70/154/21 66/155/36 65/156/38
f 71/157/33 69/153/31 65/156/38 72/158/35
f 73/159/25 71/160/33 72/161/35 68/162/34
f 74/163/29 73/159/25 68/162/34 67/164/39
f 75/165/30 74/166/29 67/167/39 76/168/37
f 70/169/21 75/165/30 76/168/37 66/170/36
f 54/171/32 76/172/37 67/150/39 57/149/32
f 61/173/32 72/174/35 65/146/38 64/145/32
f 53/148/32 66/147/36 76/172/37 54/171/32
f 59/152/32 68/151/34 72/174/35 61/173/32
o Shotgun.004
v -0.961372 -1.038986 -0.162174
v -0.960761 -1.127492 -0.075876
v -1.020772 -1.067470 -0.058586
v -1.045382 -0.998848 -0.125496
v -0.123965 -0.917619 -0.039695
v 0.055095 -1.001794 -0.045869
v 0.055095 -1.001794 0.041991
v -0.123965 -0.917619 0.040236
v 0.215802 -0.579384 -0.027871
v 0.056493 -0.639756 -0.037622
v 0.056493 -0.639756 0.037645
v 0.215802 -0.579384 0.027892
v -0.015916 -0.644501 -0.099929
v 0.073706 -0.698477 -0.079881
v 0.103198 -0.799086 -0.096511
v 0.041470 -0.933244 -0.096987
v -0.134588 -0.843335 0.106898
v 0.041965 -0.935730 0.096985
v -0.015916 -0.644501 0.099952
v -0.162227 -0.650096 0.104003
v 0.073706 -0.698477 0.079905
v 0.103198 -0.799086 0.096534
v 0.240582 -0.711195 0.095786
v 0.226973 -0.638809 0.079617
v 0.121764 -0.862421 -0.056564
v 0.250698 -0.765020 -0.057369
v 0.250698 -0.765020 0.057280
v 0.121764 -0.862421 0.052681
v -0.134933 -0.840917 -0.106840
v -0.162227 -0.650096 -0.103980
v -0.028982 -0.578760 -0.045292
v -0.028982 -0.578760 0.045315
v -0.864651 -1.015804 -0.155698
v -0.870062 -0.671138 -0.155801
v -0.172315 -0.579571 -0.032225
v -0.172315 -0.579571 0.032248
v 0.226973 -0.638809 -0.079594
v 0.240582 -0.711195 -0.095765
v -0.871765 -0.586933 -0.071338
v -0.964476 -0.587907 -0.076522
v -0.964476 -0.587907 0.076543
v -0.871765 -0.586933 0.071358
v -0.864554 -1.023903 0.155713
v -0.870062 -0.671138 0.155825
v -0.862828 -1.102930 -0.071643
v -0.961309 -1.047838 0.162185
v -0.960761 -1.127492 0.084516
v -0.862828 -1.102930 0.079334
v -0.963883 -0.673927 0.162692
v -0.963883 -0.673927 -0.162671
v -1.023652 -0.649107 -0.059087
v -1.047329 -0.715802 -0.125881
v -1.020772 -1.067470 0.065774
v -1.045333 -1.005710 0.125994
v -1.047329 -0.715802 0.126386
v -1.023652 -0.649107 0.059592
vt 0.824975 0.847972
vt 0.848974 0.825847
vt 0.853776 0.838457
vt 0.835168 0.855612
vt 0.693713 0.958738
vt 0.692342 0.906866
vt 0.716771 0.907011
vt 0.715938 0.958869
vt 0.779751 0.934277
vt 0.777024 0.906866
vt 0.797952 0.906866
vt 0.795256 0.934277
vt 0.805315 0.836931
vt 0.790264 0.860464
vt 0.761994 0.867709
vt 0.724957 0.851146
vt 0.600587 0.689172
vt 0.574412 0.643099
vt 0.655463 0.657436
vt 0.654392 0.695812
vt 0.640411 0.633904
vt 0.612142 0.626658
vt 0.636056 0.590415
vt 0.656424 0.593589
vt 0.777024 0.946346
vt 0.777024 0.987500
vt 0.745146 0.987346
vt 0.746648 0.946199
vt 0.751113 0.805112
vt 0.804244 0.798555
vt 0.842149 0.813234
vt 0.840016 0.785709
vt 0.865210 0.785709
vt 0.863077 0.813234
vt 0.704570 0.612968
vt 0.800306 0.612560
vt 0.843649 0.755250
vt 0.861576 0.755250
vt 0.774265 0.906984
vt 0.749835 0.906866
vt 0.806276 0.900778
vt 0.785908 0.903951
vt 0.832774 0.607133
vt 0.831332 0.587500
vt 0.873893 0.587500
vt 0.872451 0.607133
vt 0.552468 0.881397
vt 0.650454 0.881807
vt 0.681488 0.614117
vt 0.674970 0.588352
vt 0.698400 0.587500
vt 0.744870 0.872825
vt 0.706551 0.855076
vt 0.674970 0.969783
vt 0.678056 0.917658
vt 0.824824 0.796911
vt 0.824349 0.834305
vt 0.830398 0.825847
vt 0.824824 0.798507
vt 0.771435 0.906866
vt 0.807198 0.856594
vt 0.823510 0.898597
vt 0.824823 0.613292
vt 0.546090 0.906876
vt 0.525000 0.906111
vt 0.531531 0.880336
vt 0.734402 0.955918
vt 0.734483 0.918025
vt 0.731993 0.917583
vt 0.734402 0.969783
vt 0.674495 0.660063
vt 0.674970 0.697457
vt 0.880402 0.798507
vt 0.874828 0.825847
vt 0.595068 0.621499
vt 0.621584 0.587500
vt 0.673656 0.595771
vt 0.657345 0.637774
vt 0.674969 0.881077
vt 0.881579 0.747648
vt 0.890462 0.587500
vt 0.912688 0.587500
vt 0.923559 0.747648
vt 0.880402 0.768875
vt 0.925000 0.768875
vt 0.649932 0.906460
vt 0.674970 0.905415
vt 0.580806 0.685874
vt 0.824824 0.588953
vt 0.799784 0.587906
vt 0.730667 0.808500
vt 0.886621 0.943043
vt 0.853621 0.943043
vt 0.835051 0.926370
vt 0.905196 0.926370
vt 0.891335 0.960736
vt 0.848775 0.960736
vt 0.893572 0.825847
vt 0.915165 0.845760
vt 0.905097 0.853896
vt 0.888354 0.838457
vt 0.824824 0.939233
vt 0.915293 0.939233
vt 0.895420 0.768875
vt 0.895420 0.810917
vt 0.880402 0.806004
vt 0.880402 0.773407
vn -0.5633 -0.3782 -0.7346
vn -0.6872 -0.6821 -0.2501
vn -0.6794 -0.6736 -0.2911
vn -0.5219 -0.2613 -0.8120
vn -0.0956 -0.8954 -0.4350
vn 0.2896 -0.8759 -0.3859
vn 0.2951 -0.8803 0.3714
vn -0.0931 -0.8995 0.4268
vn -0.3137 0.8582 -0.4062
vn 0.2030 0.8642 -0.4603
vn 0.2030 0.8642 0.4603
vn -0.3137 0.8582 0.4062
vn 0.1990 0.4106 -0.8899
vn 0.0553 0.3152 -0.9474
vn 0.2173 -0.1308 -0.9673
vn 0.1765 -0.3985 -0.9000
vn 0.0335 -0.2826 0.9587
vn 0.1938 -0.4180 0.8876
vn 0.1989 0.4105 0.8899
vn 0.0287 0.3792 0.9249
vn 0.0551 0.3151 0.9475
vn 0.2254 -0.1393 0.9643
vn 0.0868 -0.0990 0.9913
vn -0.1495 0.4064 0.9014
vn 0.7072 -0.5484 -0.4463
vn 0.5063 -0.6935 -0.5125
vn 0.5030 -0.6998 0.5072
vn 0.7168 -0.5548 0.4224
vn 0.0323 -0.2776 -0.9602
vn 0.0287 0.3792 -0.9249
vn 0.2561 0.8879 -0.3822
vn 0.2561 0.8879 0.3822
vn 0.1466 -0.3569 -0.9226
vn 0.0543 0.3864 -0.9207
vn -0.0051 0.9273 -0.3742
vn -0.0051 0.9273 0.3742
vn -0.1495 0.4064 -0.9014
vn 0.0856 -0.0904 -0.9922
vn 0.0112 0.9246 -0.3807
vn 0.0120 0.9191 -0.3938
vn 0.0120 0.9191 0.3938
vn 0.0112 0.9246 0.3807
vn 0.1499 -0.3577 0.9217
vn 0.0543 0.3864 0.9207
vn 0.2424 -0.8893 -0.3879
vn 0.2434 -0.8974 -0.3680
vn 0.1568 -0.4082 -0.8993
vn 0.1606 -0.4095 0.8981
vn 0.2462 -0.8961 0.3694
vn 0.2455 -0.8891 0.3863
vn 0.0554 0.3719 0.9266
vn 0.0554 0.3719 -0.9266
vn -0.9424 0.3345 0.0000
vn -0.9938 0.1113 0.0000
vn -0.6975 0.6736 0.2443
vn -0.6982 0.6728 -0.2446
vn -0.6909 0.6653 -0.2830
vn -0.6897 0.6659 0.2845
vn -0.6894 -0.6808 0.2473
vn -0.5692 -0.3839 0.7271
vn -0.5213 -0.2563 0.8140
vn -0.6830 -0.6732 0.2833
vn -0.5732 0.3746 -0.7288
vn -0.5289 0.2556 -0.8093
vn -0.5702 0.3759 0.7305
vn -0.5251 0.2556 0.8118
vn -0.9922 -0.1243 -0.0021
vn -0.9355 -0.3531 -0.0063
vn -0.9912 -0.1326 -0.0023
usemtl Material.004
s 1
f 77/175/40 78/176/41 79/177/42 80/178/43
f 81/179/44 82/180/45 83/181/46 84/182/47
f 85/183/48 86/184/49 87/185/50 88/186/51
f 89/187/52 90/188/53 91/189/54 92/190/55
f 93/191/56 94/192/57 95/193/58 96/194/59
f 97/195/60 98/196/61 99/197/62 100/198/63
f 95/193/58 94/192/57 98/196/61 97/195/60
f 101/199/64 102/200/65 103/201/66 104/202/67
f 105/203/68 106/204/69 89/187/52 92/190/55
f 86/205/49 107/206/70 108/207/71 87/208/50
f 109/209/72 110/210/73 106/204/69 105/203/68
f 107/206/70 111/211/74 112/212/75 108/207/71
f 82/213/45 101/199/64 104/202/67 83/214/46
f 90/188/53 113/215/76 114/216/77 91/189/54
f 115/217/78 116/218/79 117/219/80 118/220/81
f 119/221/82 93/191/56 96/194/59 120/222/83
f 121/223/84 78/224/85 77/225/86 109/209/72
f 92/190/55 91/189/54 101/226/64 82/227/45
f 82/180/45 81/179/44 105/228/68 92/229/55
f 111/230/74 107/231/70 89/187/52 106/204/69
f 90/232/53 89/233/52 107/206/70 86/205/49
f 91/189/54 114/216/77 102/234/65 101/226/64
f 113/215/76 90/188/53 86/235/49 85/236/48
f 115/237/78 111/230/74 106/204/69 110/210/73
f 119/221/82 122/238/87 123/239/88 124/240/89
f 83/214/46 104/202/67 98/241/61 94/242/57
f 94/243/57 93/244/56 84/182/47 83/181/46
f 96/194/59 95/193/58 108/245/71 112/246/75
f 87/208/50 108/207/71 95/247/58 97/248/60
f 104/249/67 103/250/66 99/197/62 98/196/61
f 88/251/51 87/252/50 97/195/60 100/198/63
f 120/222/83 96/194/59 112/246/75 118/253/81
f 121/254/84 81/255/44 84/256/47 124/257/89
f 78/258/85 121/254/84 124/257/89 123/259/88
f 125/260/90 120/222/83 118/253/81 117/261/80
f 93/191/56 119/221/82 124/240/89 84/262/47
f 116/263/79 115/237/78 110/210/73 126/264/91
f 81/265/44 121/223/84 109/209/72 105/203/68
f 122/238/87 119/221/82 120/222/83 125/260/90
f 111/211/74 115/217/78 118/220/81 112/212/75
f 77/225/86 126/264/91 110/210/73 109/209/72
f 132/266/92 127/267/92 128/268/93 131/269/93
f 117/270/94 116/271/95 127/267/96 132/266/97
f 123/272/98 122/273/99 130/274/100 129/275/101
f 116/271/95 126/276/102 128/268/103 127/267/96
f 122/273/99 125/277/104 131/269/105 130/274/100
f 125/277/104 117/270/94 132/266/97 131/269/105
f 78/278/41 123/279/98 129/280/101 79/281/42
f 126/276/102 77/175/40 80/178/43 128/268/103
f 80/178/106 79/281/107 129/275/107 130/274/108
f 128/268/93 80/178/106 130/274/108 131/269/93
o Shotgun
v 0.229169 -0.748047 0.038304
v 0.232246 -0.880732 0.030250
v 0.313750 -0.851475 0.034563
v 0.412158 -0.748047 0.046898
v 0.232246 -0.880732 -0.030228
v 0.336198 -0.948734 -0.016444
v 0.336198 -0.948734 0.016464
v 0.313750 -0.851475 -0.034544
v 0.229169 -0.748047 -0.038282
v 0.412158 -0.748047 -0.046878
v 0.552760 -0.457527 0.000011
v 0.552760 -0.612705 0.000011
v 0.553358 -0.612626 0.122925
v 0.553341 -0.535114 0.167733
v 0.553358 -0.457602 0.122925
v 0.755395 -0.535114 0.202237
v 0.755388 -0.427739 0.140192
v 0.754865 -0.424948 0.000011
v 0.755388 -0.642492 0.140192
v 0.754865 -0.645281 0.000011
v 0.553358 -0.457602 -0.122906
v 0.553341 -0.535114 -0.167711
v 0.553358 -0.612626 -0.122906
v 0.755388 -0.427740 -0.140170
v 0.755395 -0.535114 -0.202217
v 0.755388 -0.642492 -0.140170
v 0.554093 -0.519393 -0.127944
v 0.215802 -0.579384 -0.027870
v 0.215802 -0.579384 0.027892
v 0.554093 -0.519393 0.127968
v 0.226973 -0.638809 0.079617
v 0.240582 -0.711195 0.095786
v 0.550181 -0.745379 0.137059
v 0.226973 -0.638809 -0.079593
v 0.550181 -0.745379 -0.137037
v 0.240582 -0.711195 -0.095764
v 0.250698 -0.765020 -0.057368
v 0.549944 -0.759114 -0.123305
v 0.549944 -0.759114 0.123330
v 0.250698 -0.765020 0.057281
v 0.753050 -0.740978 -0.112446
v 0.753742 -0.716257 -0.136890
v 0.753050 -0.740978 0.112470
v 0.753742 -0.716257 0.136912
v 0.757246 -0.541124 0.130693
v 0.757246 -0.541124 -0.130670
vt 0.415023 0.339558
vt 0.416093 0.279440
vt 0.453979 0.292741
vt 0.500000 0.339558
vt 0.450557 0.388495
vt 0.456953 0.339558
vt 0.472221 0.339558
vt 0.478618 0.388495
vt 0.468443 0.492913
vt 0.453174 0.492913
vt 0.444773 0.448262
vt 0.476837 0.448262
vt 0.463724 0.249121
vt 0.418760 0.339558
vt 0.446821 0.339558
vt 0.450557 0.400135
vt 0.415023 0.400135
vt 0.333418 0.467538
vt 0.248441 0.467538
vt 0.294462 0.420720
vt 0.332348 0.407419
vt 0.284717 0.377101
vt 0.439067 0.402244
vt 0.482577 0.402244
vt 0.343026 0.325661
vt 0.415023 0.325704
vt 0.414955 0.381812
vt 0.378980 0.402244
vt 0.343029 0.381769
vt 0.439067 0.415722
vt 0.437652 0.452531
vt 0.343026 0.453233
vt 0.345001 0.402244
vt 0.153542 0.292474
vt 0.153815 0.236366
vt 0.248441 0.228484
vt 0.248322 0.292474
vt 0.439067 0.486289
vt 0.345001 0.500000
vt 0.248717 0.369219
vt 0.248441 0.313111
vt 0.342849 0.313111
vt 0.343026 0.377101
vt 0.102194 0.340016
vt 0.000000 0.340015
vt 0.001301 0.276025
vt 0.051104 0.247703
vt 0.100907 0.276026
vt 0.343098 0.269553
vt 0.379073 0.249121
vt 0.415023 0.269595
vt 0.248441 0.440741
vt 0.154376 0.454220
vt 0.152400 0.403230
vt 0.247026 0.403933
vt 0.248441 0.356464
vt 0.153815 0.348583
vt 0.154376 0.356464
vt 0.248441 0.370174
vt 0.248717 0.257002
vt 0.343026 0.249121
vt 0.100907 0.404006
vt 0.051104 0.432329
vt 0.001301 0.404005
vt 0.001265 0.156317
vt 0.047697 0.000000
vt 0.073569 0.000000
vt 0.120002 0.156317
vt 0.436682 0.246965
vt 0.402019 0.245537
vt 0.363267 0.107497
vt 0.466643 0.090005
vt 0.327581 0.002156
vt 0.357542 0.159116
vt 0.254166 0.141624
vt 0.292917 0.003584
vt 0.158231 0.228484
vt 0.127638 0.092188
vt 0.242071 0.092188
vt 0.211426 0.228484
vt 0.248441 0.140195
vt 0.269114 0.003354
vt 0.357542 0.000000
vt 0.378219 0.245770
vt 0.357542 0.108926
vt 0.466643 0.249121
vt 0.132676 0.000000
vt 0.121267 0.092391
vt 0.121335 0.000245
vt 0.237032 0.000000
vt 0.248373 0.000245
vt 0.248441 0.092391
vt 0.121267 0.247703
vt 0.000000 0.247703
vt 0.333386 0.249121
vt 0.253338 0.235331
vt 0.362439 0.013790
vt 0.442487 0.000000
vt 0.135101 0.277524
vt 0.146558 0.288681
vt 0.146558 0.391351
vt 0.135101 0.402509
vn -0.7119 -0.0646 0.6993
vn -0.6829 -0.4190 0.5984
vn 0.4987 -0.2581 0.8274
vn 0.6118 -0.6337 0.4734
vn -0.6829 -0.4190 -0.5984
vn 0.5013 -0.7257 -0.4712
vn 0.5013 -0.7257 0.4712
vn 0.4987 -0.2581 -0.8274
vn -0.7119 -0.0646 -0.6993
vn 0.6118 -0.6337 -0.4734
vn -0.7601 0.6498 -0.0000
vn -0.7601 -0.6498 0.0000
vn -0.6725 -0.6381 0.3749
vn -0.6716 0.0000 0.7409
vn -0.6725 0.6381 0.3749
vn 0.5468 0.0000 0.8373
vn 0.5477 0.7230 0.4211
vn 0.6449 0.7643 -0.0000
vn 0.5477 -0.7230 0.4211
vn -0.1532 -0.9882 0.0000
vn 1.0000 -0.0000 -0.0000
vn -0.6725 0.6381 -0.3749
vn -0.6716 0.0000 -0.7409
vn -0.6725 -0.6381 -0.3749
vn 0.5477 0.7230 -0.4211
vn 0.5468 0.0000 -0.8373
vn 0.5477 -0.7230 -0.4211
vn -0.0756 0.7378 -0.6708
vn -0.2630 0.8991 -0.3500
vn -0.2630 0.8991 0.3500
vn -0.0756 0.7378 0.6708
vn -0.2428 0.3343 0.9107
vn -0.1669 -0.2353 0.9575
vn -0.0560 -0.3509 0.9347
vn -0.2428 0.3343 -0.9107
vn -0.0560 -0.3507 -0.9348
vn -0.1669 -0.2348 -0.9576
vn -0.0740 -0.9129 -0.4015
vn 0.0052 -0.9004 -0.4350
vn 0.0052 -0.9005 0.4348
vn -0.0740 -0.9131 0.4009
vn 0.6580 -0.6981 -0.2822
vn 0.6551 -0.2588 -0.7099
vn 0.6580 -0.6981 0.2822
vn 0.6550 -0.2600 0.7095
vn 0.0665 0.6959 0.7151
vn 0.0665 0.6959 -0.7151
vn 0.9998 -0.0187 0.0004
vn 0.9998 -0.0180 0.0011
vn 0.9997 -0.0222 -0.0033
usemtl Material.007
s 1
f 133/282/109 134/283/110 135/284/111 136/285/112
f 137/286/113 138/287/114 139/288/115 134/289/110
f 139/290/115 138/291/114 140/292/116 135/293/111
f 135/284/111 134/283/110 139/294/115
f 137/295/113 134/296/110 133/297/109 141/298/117
f 141/299/117 142/300/118 140/301/116 137/302/113
f 140/301/116 138/303/114 137/302/113
f 142/304/118 136/305/112 135/293/111 140/292/116
f 143/306/119 144/307/120 145/308/121 146/309/122 147/310/123
f 147/311/123 146/312/122 148/313/124 149/314/125
f 143/315/119 147/316/123 149/317/125 150/318/126
f 146/312/122 145/319/121 151/320/127 148/313/124
f 145/321/121 144/322/120 152/323/128 151/324/127
f 152/325/129 150/326/126 149/327/125 148/328/124 151/329/127
f 143/306/119 153/330/130 154/331/131 155/332/132 144/307/120
f 153/333/130 156/334/133 157/335/134 154/336/131
f 143/315/119 150/318/126 156/337/133 153/338/130
f 154/336/131 157/335/134 158/339/135 155/340/132
f 155/341/132 158/342/135 152/323/128 144/322/120
f 152/325/129 158/343/135 157/344/134 156/345/133 150/326/126
usemtl Material.008
f 159/346/136 160/347/137 161/348/138 162/349/139
f 163/350/140 164/351/141 165/352/142 162/353/139
f 166/354/143 159/355/136 167/356/144 168/357/145
f 169/358/146 170/359/147 171/360/148 172/361/149
f 168/357/145 167/356/144 170/362/147 169/363/146
f 159/355/136 166/354/143 160/364/137
f 172/365/149 171/366/148 165/352/142 164/351/141
f 162/353/139 161/367/138 163/350/140
f 173/368/150 170/359/147 167/369/144 174/370/151
f 171/360/148 175/371/152 176/372/153 165/373/142
f 171/360/148 170/359/147 173/368/150 175/371/152
f 159/346/136 162/349/139 177/374/154 178/375/155
f 167/356/144 159/355/136 178/376/155 174/377/151
f 162/353/139 165/352/142 176/378/153 177/379/154
f 176/380/153 175/381/152 173/382/150 174/383/151
usemtl Material.005_NONE
f 152/325/156 176/380/153 174/383/151 158/343/157
f 152/325/156 151/329/158 176/380/153
